<svg xmlns="http://www.w3.org/2000/svg" xmlns:xlink="http://www.w3.org/1999/xlink" width="40" zoomAndPan="magnify" viewBox="0 0 30 30.000001" height="40" preserveAspectRatio="xMidYMid meet" version="1.0"><defs><clipPath id="bf236707aa"><path d="M 1.808594 1 L 10 1 L 10 28 L 1.808594 28 Z M 1.808594 1 " clip-rule="nonzero"/></clipPath><clipPath id="9e3e14d2e1"><path d="M 22 1 L 27.9375 1 L 27.9375 28 L 22 28 Z M 22 1 " clip-rule="nonzero"/></clipPath></defs><g clip-path="url(#bf236707aa)"><path fill="#e86e23" d="M 9.503906 7.480469 L 9.503906 1.984375 C 9.503906 1.675781 9.253906 1.429688 8.945312 1.429688 C 8.636719 1.429688 8.402344 1.675781 8.402344 1.984375 L 8.402344 7.480469 C 8.402344 8.390625 7.671875 9.121094 6.761719 9.121094 L 4.5625 9.121094 C 3.65625 9.121094 2.921875 8.390625 2.921875 7.480469 L 2.921875 1.984375 C 2.90625 1.675781 2.660156 1.429688 2.367188 1.429688 C 2.074219 1.429688 1.808594 1.675781 1.808594 1.984375 L 1.808594 7.480469 C 1.808594 8.785156 2.730469 9.914062 4.007812 10.175781 L 4.007812 26.722656 C 4.007812 27.324219 4.503906 27.820312 5.105469 27.820312 L 6.203125 27.820312 C 6.804688 27.820312 7.304688 27.324219 7.304688 26.722656 L 7.304688 10.164062 C 8.578125 9.898438 9.503906 8.785156 9.503906 7.480469 Z M 5.105469 26.707031 L 5.105469 10.222656 L 6.203125 10.222656 L 6.203125 26.707031 Z M 5.105469 26.707031 " fill-opacity="1" fill-rule="nonzero"/></g><path fill="#e86e23" d="M 4.5625 6.925781 C 4.871094 6.925781 5.121094 6.675781 5.121094 6.367188 L 5.121094 1.972656 C 5.121094 1.664062 4.871094 1.414062 4.5625 1.414062 C 4.257812 1.414062 4.007812 1.675781 4.007812 1.984375 L 4.007812 6.382812 C 4.007812 6.675781 4.257812 6.925781 4.5625 6.925781 Z M 4.5625 6.925781 " fill-opacity="1" fill-rule="nonzero"/><path fill="#e86e23" d="M 6.761719 6.925781 C 7.070312 6.925781 7.320312 6.675781 7.320312 6.367188 L 7.320312 1.972656 C 7.320312 1.664062 7.070312 1.414062 6.761719 1.414062 C 6.453125 1.414062 6.203125 1.675781 6.203125 1.984375 L 6.203125 6.382812 C 6.203125 6.675781 6.453125 6.925781 6.761719 6.925781 Z M 6.761719 6.925781 " fill-opacity="1" fill-rule="nonzero"/><g clip-path="url(#9e3e14d2e1)"><path fill="#e86e23" d="M 27.878906 1.488281 C 27.6875 1.398438 27.46875 1.414062 27.308594 1.546875 C 27.117188 1.691406 22.691406 5.179688 22.691406 20.113281 C 22.691406 20.421875 22.941406 20.65625 23.234375 20.671875 L 24.875 20.671875 L 24.875 26.707031 C 24.875 27.308594 25.375 27.808594 25.972656 27.808594 L 27.074219 27.808594 C 27.675781 27.808594 28.171875 27.308594 28.171875 26.707031 L 28.171875 1.984375 C 28.1875 1.765625 28.070312 1.574219 27.878906 1.488281 Z M 27.089844 26.707031 L 25.988281 26.707031 L 25.988281 20.113281 C 25.988281 19.804688 25.738281 19.570312 25.445312 19.554688 L 23.789062 19.554688 C 23.863281 9.839844 25.886719 5.328125 27.089844 3.496094 Z M 27.089844 26.707031 " fill-opacity="1" fill-rule="nonzero"/></g><path fill="#e86e23" d="M 10.792969 3.273438 C 15.160156 1.664062 20.070312 2.6875 23.410156 5.925781 C 23.628906 6.117188 23.964844 6.117188 24.1875 5.914062 C 24.390625 5.691406 24.390625 5.339844 24.171875 5.136719 C 20.523438 1.617188 15.171875 0.492188 10.410156 2.25 C 10.132812 2.351562 9.984375 2.675781 10.089844 2.953125 C 10.191406 3.230469 10.511719 3.390625 10.792969 3.273438 Z M 10.792969 3.273438 " fill-opacity="1" fill-rule="nonzero"/><path fill="#e86e23" d="M 23.410156 23.308594 C 19.453125 27.148438 13.402344 27.808594 8.695312 24.933594 C 8.433594 24.773438 8.09375 24.863281 7.933594 25.109375 C 7.773438 25.375 7.859375 25.710938 8.109375 25.871094 C 13.238281 29.007812 19.847656 28.277344 24.171875 24.097656 C 24.390625 23.894531 24.390625 23.542969 24.1875 23.324219 C 23.980469 23.101562 23.628906 23.089844 23.410156 23.308594 Z M 23.410156 23.308594 " fill-opacity="1" fill-rule="nonzero"/><path fill="#e86e23" d="M 21.183594 20.070312 C 18.179688 23.484375 12.960938 23.804688 9.546875 20.800781 C 9.355469 20.640625 9.179688 20.464844 9.019531 20.289062 C 8.8125 20.070312 8.460938 20.054688 8.242188 20.273438 C 8.023438 20.480469 8.007812 20.832031 8.226562 21.050781 C 11.773438 24.804688 17.695312 24.964844 21.429688 21.417969 C 21.636719 21.226562 21.828125 21.023438 22.015625 20.816406 C 22.222656 20.582031 22.195312 20.246094 21.972656 20.039062 C 21.722656 19.820312 21.386719 19.847656 21.183594 20.070312 Z M 21.183594 20.070312 " fill-opacity="1" fill-rule="nonzero"/><path fill="#e86e23" d="M 22.898438 10.691406 C 23.160156 10.542969 23.25 10.207031 23.101562 9.957031 C 23.101562 9.957031 23.101562 9.941406 23.101562 9.941406 C 20.523438 5.472656 14.808594 3.949219 10.335938 6.527344 C 10.074219 6.675781 9.984375 7.011719 10.132812 7.277344 C 10.277344 7.539062 10.617188 7.628906 10.878906 7.480469 C 14.820312 5.210938 19.863281 6.558594 22.132812 10.5 C 22.296875 10.75 22.617188 10.835938 22.898438 10.691406 Z M 22.898438 10.691406 " fill-opacity="1" fill-rule="nonzero"/></svg>