<svg xmlns="http://www.w3.org/2000/svg" xmlns:xlink="http://www.w3.org/1999/xlink" width="40" zoomAndPan="magnify" viewBox="0 0 30 30.000001" height="40" preserveAspectRatio="xMidYMid meet" version="1.0"><defs><clipPath id="8d25a318ee"><path d="M 0.484375 2.175781 L 29.515625 2.175781 L 29.515625 26.128906 L 0.484375 26.128906 Z M 0.484375 2.175781 " clip-rule="nonzero"/></clipPath></defs><g clip-path="url(#8d25a318ee)"><path fill="#e86e23" d="M 28.054688 19.710938 C 27.882812 20.128906 27.636719 20.574219 27.339844 21.015625 L 26.445312 20.121094 C 26.414062 20.09375 26.386719 20.066406 26.355469 20.042969 C 25.765625 19.566406 24.785156 19.746094 24.070312 20.460938 C 23.914062 20.617188 23.78125 20.785156 23.675781 20.964844 C 23.652344 21 23.632812 21.039062 23.613281 21.074219 C 23.296875 21.679688 23.308594 22.316406 23.644531 22.738281 C 23.65625 22.757812 23.671875 22.769531 23.683594 22.785156 C 23.699219 22.800781 23.714844 22.820312 23.730469 22.835938 L 24.625 23.730469 C 24.328125 23.929688 24.035156 24.105469 23.746094 24.25 C 22.882812 24.683594 22.117188 24.835938 21.644531 24.664062 C 21.542969 24.625 21.453125 24.570312 21.386719 24.5 C 21.3125 24.425781 21.257812 24.339844 21.21875 24.230469 C 21.058594 23.777344 21.195312 23.050781 21.59375 22.230469 C 21.992188 21.40625 22.613281 20.558594 23.390625 19.78125 C 23.695312 19.476562 24.011719 19.195312 24.335938 18.941406 C 25.257812 18.214844 26.230469 17.722656 27.003906 17.585938 C 27.332031 17.527344 27.621094 17.535156 27.839844 17.613281 C 27.949219 17.648438 28.035156 17.703125 28.109375 17.777344 C 28.4375 18.105469 28.414062 18.828125 28.054688 19.710938 Z M 27.511719 22.839844 C 27.46875 23.066406 27.324219 23.3125 27.121094 23.515625 C 26.917969 23.714844 26.675781 23.859375 26.449219 23.902344 C 26.296875 23.933594 26.167969 23.914062 26.105469 23.851562 C 25.964844 23.714844 26.03125 23.25 26.445312 22.835938 C 26.730469 22.550781 27.042969 22.429688 27.25 22.429688 C 27.34375 22.429688 27.417969 22.453125 27.460938 22.496094 C 27.523438 22.558594 27.542969 22.6875 27.511719 22.839844 Z M 24.410156 22.15625 C 24.40625 22.15625 24.402344 22.152344 24.398438 22.148438 C 24.398438 22.148438 24.398438 22.144531 24.398438 22.144531 C 24.320312 22.050781 24.308594 21.816406 24.464844 21.519531 C 24.476562 21.5 24.488281 21.480469 24.5 21.457031 C 24.566406 21.34375 24.648438 21.238281 24.746094 21.140625 C 25.148438 20.738281 25.601562 20.664062 25.75 20.789062 C 25.753906 20.789062 25.753906 20.792969 25.757812 20.792969 C 25.757812 20.792969 25.761719 20.796875 25.765625 20.800781 L 26.578125 21.609375 C 26.292969 21.726562 26.015625 21.90625 25.765625 22.15625 C 25.515625 22.40625 25.332031 22.683594 25.21875 22.96875 Z M 19.710938 24.183594 C 18.933594 24.320312 18.316406 24.207031 17.964844 23.851562 L 17.960938 23.851562 C 17.476562 23.363281 17.449219 22.390625 17.886719 21.1875 C 18.375 19.84375 19.367188 18.378906 20.675781 17.066406 C 21.988281 15.757812 23.449219 14.765625 24.796875 14.277344 C 25.363281 14.070312 25.882812 13.96875 26.320312 13.96875 C 26.808594 13.96875 27.203125 14.097656 27.460938 14.351562 L 27.460938 14.355469 C 27.820312 14.714844 27.933594 15.324219 27.792969 16.105469 L 27.429688 15.742188 C 26.835938 15.148438 25.847656 15.066406 24.640625 15.515625 C 23.558594 15.917969 22.390625 16.710938 21.355469 17.746094 C 20.320312 18.78125 19.527344 19.949219 19.125 21.03125 C 18.675781 22.238281 18.757812 23.230469 19.351562 23.824219 Z M 16.527344 19.828125 C 17.019531 18.484375 18.007812 17.023438 19.320312 15.710938 C 20.628906 14.402344 22.09375 13.410156 23.4375 12.921875 C 24.644531 12.480469 25.617188 12.507812 26.105469 12.996094 L 26.121094 13.011719 C 25.617188 13.039062 25.0625 13.160156 24.46875 13.375 C 22.992188 13.910156 21.40625 14.980469 19.996094 16.390625 C 18.589844 17.796875 17.519531 19.386719 16.984375 20.859375 C 16.765625 21.453125 16.648438 22.007812 16.621094 22.511719 L 16.605469 22.496094 C 16.117188 22.007812 16.089844 21.035156 16.527344 19.828125 Z M 9.167969 17.492188 L 16.640625 17.492188 C 16.230469 18.136719 15.898438 18.785156 15.660156 19.414062 L 9.167969 19.414062 Z M 8.207031 24.210938 C 8.207031 24.738281 7.777344 25.167969 7.25 25.167969 C 6.71875 25.167969 6.289062 24.738281 6.289062 24.210938 L 6.289062 12.695312 C 6.289062 12.167969 6.71875 11.738281 7.25 11.738281 C 7.777344 11.738281 8.207031 12.167969 8.207031 12.695312 Z M 4.371094 21.8125 C 3.839844 21.8125 3.410156 21.378906 3.410156 20.851562 L 3.410156 16.054688 C 3.410156 15.523438 3.839844 15.09375 4.371094 15.09375 C 4.898438 15.09375 5.328125 15.523438 5.328125 16.054688 L 5.328125 20.851562 C 5.328125 21.378906 4.898438 21.8125 4.371094 21.8125 Z M 7.132812 8.476562 C 7.488281 7.519531 8.203125 6.476562 9.144531 5.535156 C 10.082031 4.59375 11.128906 3.878906 12.085938 3.523438 C 12.789062 3.261719 13.382812 3.230469 13.726562 3.425781 C 12.417969 4.011719 11.050781 4.984375 9.820312 6.210938 C 8.597656 7.4375 7.617188 8.816406 7.035156 10.117188 C 6.839844 9.777344 6.871094 9.179688 7.132812 8.476562 Z M 7.785156 5.535156 C 7.722656 5.472656 7.703125 5.34375 7.734375 5.191406 C 7.78125 4.964844 7.921875 4.71875 8.125 4.515625 C 8.328125 4.3125 8.574219 4.171875 8.796875 4.128906 C 8.953125 4.097656 9.082031 4.117188 9.144531 4.175781 L 9.171875 4.207031 C 8.929688 4.410156 8.695312 4.625 8.464844 4.855469 C 8.234375 5.085938 8.019531 5.320312 7.8125 5.5625 Z M 17.285156 4.175781 L 17.300781 4.191406 C 16.796875 4.21875 16.242188 4.339844 15.648438 4.554688 C 14.171875 5.09375 12.585938 6.164062 11.179688 7.570312 C 10.019531 8.726562 9.089844 10.007812 8.5 11.242188 C 8.289062 11.0625 8.042969 10.925781 7.769531 10.847656 C 8.269531 9.5625 9.242188 8.148438 10.5 6.890625 C 11.808594 5.582031 13.273438 4.589844 14.617188 4.101562 C 15.824219 3.660156 16.796875 3.6875 17.285156 4.175781 Z M 17.195312 10.875 L 15.589844 9.265625 C 15.292969 8.972656 14.851562 8.859375 14.375 8.953125 C 13.964844 9.035156 13.550781 9.265625 13.214844 9.605469 C 12.875 9.941406 12.644531 10.355469 12.5625 10.769531 C 12.464844 11.246094 12.582031 11.6875 12.875 11.980469 L 14.480469 13.585938 C 12.28125 15.269531 10.0625 15.898438 9.167969 15.054688 L 9.167969 12.695312 C 9.167969 12.539062 9.148438 12.386719 9.113281 12.242188 C 9.617188 10.933594 10.585938 9.519531 11.855469 8.25 C 13.167969 6.9375 14.628906 5.945312 15.976562 5.457031 C 17.183594 5.019531 18.152344 5.046875 18.640625 5.535156 C 19.519531 6.410156 18.894531 8.652344 17.195312 10.875 Z M 17.984375 15.730469 L 13.554688 11.300781 C 13.492188 11.238281 13.472656 11.109375 13.503906 10.957031 C 13.546875 10.730469 13.6875 10.484375 13.890625 10.28125 C 14.09375 10.082031 14.339844 9.9375 14.566406 9.894531 C 14.71875 9.863281 14.847656 9.882812 14.910156 9.945312 L 19.339844 14.375 C 19.105469 14.585938 18.871094 14.804688 18.640625 15.03125 C 18.414062 15.261719 18.195312 15.496094 17.984375 15.730469 Z M 9.167969 16.175781 C 9.496094 16.308594 9.871094 16.375 10.28125 16.375 C 11.648438 16.375 13.410156 15.640625 15.167969 14.273438 L 17.367188 16.472656 C 17.351562 16.492188 17.335938 16.511719 17.320312 16.535156 L 9.167969 16.535156 Z M 21.640625 12.695312 C 21.640625 12.441406 21.742188 12.199219 21.921875 12.015625 C 22.105469 11.835938 22.34375 11.734375 22.601562 11.734375 C 22.839844 11.734375 23.0625 11.824219 23.234375 11.976562 C 23.195312 11.988281 23.152344 12.003906 23.109375 12.019531 C 22.628906 12.191406 22.136719 12.425781 21.640625 12.707031 Z M 20.816406 21.636719 C 20.671875 21.914062 20.546875 22.199219 20.441406 22.496094 C 20.351562 22.75 20.230469 23.070312 20.230469 23.34375 L 20.027344 23.144531 C 19.726562 22.839844 19.722656 22.175781 20.023438 21.367188 C 20.378906 20.410156 21.09375 19.367188 22.035156 18.425781 C 22.972656 17.484375 24.019531 16.769531 24.976562 16.414062 C 25.785156 16.113281 26.449219 16.117188 26.753906 16.421875 L 26.953125 16.621094 C 26.914062 16.628906 26.875 16.632812 26.835938 16.640625 C 25.898438 16.804688 24.800781 17.355469 23.742188 18.1875 C 23.390625 18.464844 23.042969 18.773438 22.710938 19.101562 C 21.914062 19.902344 21.261719 20.773438 20.816406 21.636719 Z M 1.492188 19.414062 L 1.492188 17.492188 L 2.453125 17.492188 L 2.453125 19.414062 Z M 28.789062 17.097656 L 28.585938 16.898438 C 28.992188 15.511719 28.835938 14.371094 28.140625 13.675781 C 28.136719 13.671875 28.136719 13.671875 28.132812 13.671875 L 26.78125 12.320312 C 26.203125 11.738281 25.324219 11.535156 24.25 11.710938 C 23.910156 11.140625 23.289062 10.777344 22.601562 10.777344 C 22.089844 10.777344 21.605469 10.976562 21.242188 11.339844 C 20.882812 11.703125 20.683594 12.183594 20.683594 12.695312 L 20.683594 13.316406 C 20.480469 13.457031 20.28125 13.605469 20.082031 13.757812 L 17.878906 11.558594 C 19.992188 8.84375 20.589844 6.128906 19.320312 4.855469 L 17.964844 3.5 C 17.261719 2.796875 16.128906 2.644531 14.738281 3.050781 L 14.539062 2.851562 C 13.945312 2.257812 12.957031 2.175781 11.75 2.625 C 11.160156 2.84375 10.539062 3.183594 9.933594 3.613281 L 9.820312 3.5 C 9.527344 3.203125 9.085938 3.089844 8.609375 3.1875 C 8.199219 3.269531 7.785156 3.5 7.445312 3.839844 C 7.109375 4.175781 6.878906 4.589844 6.792969 5 C 6.699219 5.476562 6.8125 5.917969 7.109375 6.210938 L 7.21875 6.324219 C 6.789062 6.933594 6.453125 7.550781 6.234375 8.140625 C 5.785156 9.347656 5.867188 10.335938 6.460938 10.929688 L 6.46875 10.941406 C 5.800781 11.242188 5.328125 11.914062 5.328125 12.695312 L 5.328125 14.394531 C 5.046875 14.230469 4.71875 14.136719 4.371094 14.136719 C 3.3125 14.136719 2.453125 14.996094 2.453125 16.054688 L 2.453125 16.535156 L 1.011719 16.535156 C 0.746094 16.535156 0.53125 16.75 0.53125 17.011719 L 0.53125 19.890625 C 0.53125 20.15625 0.746094 20.371094 1.011719 20.371094 L 2.453125 20.371094 L 2.453125 20.851562 C 2.453125 21.910156 3.3125 22.769531 4.371094 22.769531 C 4.71875 22.769531 5.046875 22.675781 5.328125 22.511719 L 5.328125 24.210938 C 5.328125 25.269531 6.191406 26.128906 7.25 26.128906 C 8.308594 26.128906 9.167969 25.269531 9.167969 24.210938 L 9.167969 20.371094 L 15.371094 20.371094 C 15.113281 21.570312 15.300781 22.546875 15.925781 23.175781 L 17.277344 24.527344 C 17.28125 24.527344 17.28125 24.53125 17.285156 24.53125 C 17.726562 24.976562 18.351562 25.199219 19.101562 25.199219 C 19.53125 25.199219 20.003906 25.125 20.507812 24.980469 L 20.707031 25.179688 C 20.875 25.347656 21.082031 25.476562 21.316406 25.5625 C 21.546875 25.648438 21.804688 25.6875 22.082031 25.6875 C 22.695312 25.6875 23.410156 25.492188 24.175781 25.105469 C 24.554688 24.917969 24.933594 24.6875 25.3125 24.417969 L 25.425781 24.53125 C 25.652344 24.757812 25.964844 24.878906 26.3125 24.878906 C 26.417969 24.878906 26.527344 24.867188 26.636719 24.84375 C 27.050781 24.761719 27.460938 24.53125 27.800781 24.191406 C 28.136719 23.855469 28.371094 23.441406 28.453125 23.027344 C 28.546875 22.554688 28.433594 22.113281 28.140625 21.816406 L 28.027344 21.703125 C 28.414062 21.15625 28.726562 20.601562 28.941406 20.074219 C 29.46875 18.78125 29.414062 17.726562 28.789062 17.097656 " fill-opacity="1" fill-rule="nonzero"/></g></svg>