<svg xmlns="http://www.w3.org/2000/svg" xmlns:xlink="http://www.w3.org/1999/xlink" width="40" zoomAndPan="magnify" viewBox="0 0 30 30.000001" height="40" preserveAspectRatio="xMidYMid meet" version="1.0"><defs><clipPath id="e2b388ee4e"><path d="M 0.484375 0.957031 L 29.515625 0.957031 L 29.515625 27.808594 L 0.484375 27.808594 Z M 0.484375 0.957031 " clip-rule="nonzero"/></clipPath></defs><g clip-path="url(#e2b388ee4e)"><path fill="#e86e23" d="M 2.863281 17.617188 C 2.886719 17.632812 2.90625 17.648438 2.929688 17.664062 L 5.617188 19.214844 C 4.402344 20.753906 4.21875 22.902344 5.199219 24.636719 C 5.207031 24.648438 5.210938 24.660156 5.21875 24.671875 C 5.851562 25.769531 6.871094 26.566406 8.085938 26.917969 C 8.53125 27.046875 8.984375 27.109375 9.433594 27.109375 C 10.1875 27.109375 10.9375 26.933594 11.621094 26.582031 C 11.648438 26.574219 11.671875 26.5625 11.699219 26.546875 L 14.382812 24.996094 C 15.109375 26.820312 16.878906 28.054688 18.875 28.070312 C 18.886719 28.070312 18.902344 28.070312 18.914062 28.070312 C 20.179688 28.070312 21.378906 27.589844 22.289062 26.710938 C 23.179688 25.855469 23.675781 24.710938 23.742188 23.480469 C 23.746094 23.453125 23.726562 23.425781 23.726562 23.398438 L 23.726562 20.296875 C 23.953125 20.332031 24.21875 20.347656 24.453125 20.347656 C 26.148438 20.347656 27.777344 19.457031 28.667969 17.945312 C 28.675781 17.933594 28.691406 17.925781 28.695312 17.914062 C 29.332031 16.816406 29.515625 15.535156 29.210938 14.308594 C 28.914062 13.109375 28.183594 12.082031 27.152344 11.410156 C 27.132812 11.394531 27.109375 11.378906 27.085938 11.367188 L 24.402344 9.8125 C 25.617188 8.277344 25.800781 6.125 24.816406 4.390625 C 24.8125 4.378906 24.804688 4.367188 24.800781 4.355469 C 24.164062 3.257812 23.148438 2.460938 21.933594 2.109375 C 20.746094 1.769531 19.492188 1.886719 18.394531 2.445312 C 18.371094 2.453125 18.34375 2.464844 18.320312 2.480469 L 15.632812 4.03125 C 14.910156 2.207031 13.140625 0.972656 11.144531 0.957031 C 11.128906 0.957031 11.117188 0.957031 11.105469 0.957031 C 9.839844 0.957031 8.640625 1.4375 7.730469 2.316406 C 6.839844 3.171875 6.242188 4.320312 6.175781 5.546875 C 6.171875 5.574219 6.097656 5.601562 6.097656 5.628906 L 6.097656 8.730469 C 4.257812 8.445312 2.277344 9.363281 1.265625 11.082031 C 1.257812 11.09375 1.285156 11.105469 1.28125 11.117188 C 0.644531 12.214844 0.484375 13.492188 0.789062 14.71875 C 1.085938 15.917969 1.832031 16.945312 2.863281 17.617188 Z M 11.308594 25.746094 C 11.296875 25.753906 11.28125 25.757812 11.269531 25.765625 C 9.390625 26.75 7.085938 26.089844 6.007812 24.261719 C 6.003906 24.25 5.996094 24.238281 5.992188 24.226562 C 5.148438 22.765625 5.324219 20.9375 6.398438 19.664062 L 10.214844 21.867188 L 10.324219 21.972656 C 10.410156 22.050781 10.519531 22.089844 10.628906 22.089844 C 10.707031 22.089844 10.78125 22.070312 10.851562 22.03125 L 15.148438 19.550781 C 15.152344 19.550781 15.152344 19.550781 15.152344 19.550781 L 18.558594 17.585938 L 18.558594 21.566406 Z M 14.996094 18.605469 L 11.4375 16.558594 L 11.4375 12.46875 L 14.996094 10.425781 L 18.558594 12.46875 L 18.558594 16.558594 Z M 18.933594 27.183594 C 18.925781 27.183594 18.917969 27.179688 18.90625 27.179688 C 17.21875 27.179688 15.726562 26.113281 15.160156 24.546875 L 18.980469 22.34375 L 19.085938 22.300781 C 19.273438 22.242188 19.359375 22.070312 19.359375 21.875 L 19.359375 12.980469 L 22.863281 14.972656 L 22.863281 23.339844 C 22.863281 23.351562 22.871094 23.367188 22.871094 23.382812 C 22.785156 25.5 21.058594 27.164062 18.933594 27.183594 Z M 26.589844 12.105469 C 26.601562 12.113281 26.613281 12.121094 26.625 12.128906 C 28.417969 13.265625 28.996094 15.589844 27.949219 17.4375 C 27.945312 17.445312 27.910156 17.457031 27.90625 17.46875 C 27.0625 18.929688 25.332031 19.691406 23.726562 19.398438 L 23.726562 14.988281 L 23.785156 14.84375 C 23.828125 14.652344 23.757812 14.453125 23.585938 14.355469 L 15.894531 9.910156 L 19.339844 7.921875 Z M 18.714844 3.28125 C 18.726562 3.273438 18.738281 3.269531 18.753906 3.261719 C 20.628906 2.277344 22.933594 2.9375 24.011719 4.769531 C 24.015625 4.777344 24.023438 4.789062 24.027344 4.800781 C 24.871094 6.261719 24.695312 8.09375 23.621094 9.363281 L 19.804688 7.160156 L 19.695312 7.058594 C 19.550781 6.921875 19.320312 6.898438 19.152344 6.996094 L 11.4375 11.441406 L 11.4375 7.464844 L 15.59375 5.074219 Z M 7.074219 5.691406 C 7.074219 5.675781 7.105469 5.660156 7.105469 5.648438 C 7.191406 3.527344 8.933594 1.863281 11.058594 1.847656 C 11.070312 1.847656 11.085938 1.847656 11.097656 1.847656 C 12.789062 1.847656 14.289062 2.914062 14.851562 4.480469 L 11.035156 6.683594 L 10.835938 6.726562 C 10.648438 6.785156 10.460938 6.957031 10.460938 7.152344 L 10.460938 16.046875 L 7.074219 14.054688 Z M 2.015625 11.5625 C 2.859375 10.097656 4.488281 9.335938 6.097656 9.632812 L 6.097656 14.183594 C 6.097656 14.375 6.195312 14.574219 6.363281 14.671875 L 14.09375 19.117188 L 10.660156 21.105469 L 3.421875 16.925781 C 3.410156 16.914062 3.402344 16.90625 3.390625 16.898438 C 1.597656 15.765625 1.019531 13.4375 2.066406 11.589844 C 2.074219 11.582031 2.007812 11.570312 2.015625 11.5625 Z M 2.015625 11.5625 " fill-opacity="1" fill-rule="nonzero"/></g></svg>