<svg xmlns="http://www.w3.org/2000/svg" xmlns:xlink="http://www.w3.org/1999/xlink" width="40" zoomAndPan="magnify" viewBox="0 0 30 30.000001" height="40" preserveAspectRatio="xMidYMid meet" version="1.0"><defs><clipPath id="04e6daaecd"><path d="M 1.917969 10 L 21 10 L 21 29 L 1.917969 29 Z M 1.917969 10 " clip-rule="nonzero"/></clipPath><clipPath id="c5cfdb7dd6"><path d="M 18 8 L 28.046875 8 L 28.046875 19 L 18 19 Z M 18 8 " clip-rule="nonzero"/></clipPath></defs><g clip-path="url(#04e6daaecd)"><path fill="#e86e23" d="M 19.859375 18.433594 L 18.070312 17.851562 C 17.925781 17.273438 17.683594 16.742188 17.394531 16.207031 L 18.261719 14.515625 C 18.359375 14.371094 18.3125 14.226562 18.214844 14.082031 L 16.714844 12.628906 C 16.617188 12.535156 16.425781 12.484375 16.28125 12.582031 L 14.585938 13.453125 C 14.054688 13.160156 13.523438 12.921875 12.992188 12.773438 L 12.410156 10.9375 C 12.363281 10.792969 12.21875 10.695312 12.074219 10.695312 L 9.945312 10.695312 C 9.800781 10.695312 9.65625 10.792969 9.605469 10.9375 L 9.027344 12.773438 C 8.445312 12.921875 7.914062 13.160156 7.429688 13.453125 L 5.738281 12.582031 C 5.59375 12.484375 5.449219 12.535156 5.300781 12.628906 L 3.804688 14.128906 C 3.707031 14.226562 3.660156 14.417969 3.753906 14.566406 L 4.625 16.257812 C 4.335938 16.789062 4.09375 17.320312 3.949219 17.902344 L 2.160156 18.433594 C 2.015625 18.480469 1.917969 18.625 1.917969 18.773438 L 1.917969 20.898438 C 1.917969 21.042969 2.015625 21.191406 2.160156 21.238281 L 3.949219 21.820312 C 4.09375 22.398438 4.335938 22.929688 4.625 23.460938 L 3.753906 25.105469 C 3.660156 25.253906 3.707031 25.398438 3.804688 25.542969 L 5.300781 27.042969 C 5.398438 27.136719 5.59375 27.1875 5.738281 27.089844 L 7.382812 26.21875 C 7.914062 26.507812 8.445312 26.75 9.027344 26.894531 L 9.605469 28.6875 C 9.65625 28.832031 9.800781 28.925781 9.945312 28.925781 L 12.074219 28.925781 C 12.21875 28.925781 12.363281 28.832031 12.410156 28.6875 L 12.992188 26.894531 C 13.570312 26.75 14.105469 26.507812 14.636719 26.21875 L 16.28125 27.089844 C 16.425781 27.1875 16.570312 27.136719 16.714844 27.042969 L 18.214844 25.542969 C 18.3125 25.445312 18.359375 25.253906 18.261719 25.105469 L 17.394531 23.460938 C 17.683594 22.929688 17.925781 22.398438 18.070312 21.820312 L 19.859375 21.238281 C 20.003906 21.191406 20.101562 21.042969 20.101562 20.898438 L 20.101562 18.773438 C 20.101562 18.625 20.003906 18.480469 19.859375 18.433594 Z M 19.375 20.609375 L 17.632812 21.140625 C 17.539062 21.191406 17.441406 21.285156 17.394531 21.382812 C 17.246094 22.011719 16.957031 22.640625 16.667969 23.222656 C 16.617188 23.316406 16.617188 23.460938 16.667969 23.558594 L 17.488281 25.15625 L 16.378906 26.269531 L 14.78125 25.445312 C 14.683594 25.398438 14.539062 25.398438 14.441406 25.445312 C 13.863281 25.785156 13.28125 26.027344 12.605469 26.21875 C 12.460938 26.269531 12.363281 26.363281 12.363281 26.460938 L 11.832031 28.203125 L 10.234375 28.203125 L 9.65625 26.507812 C 9.605469 26.414062 9.511719 26.316406 9.414062 26.269531 C 8.785156 26.121094 8.15625 25.832031 7.574219 25.492188 C 7.480469 25.445312 7.332031 25.445312 7.238281 25.492188 L 5.640625 26.316406 L 4.527344 25.203125 L 5.351562 23.609375 C 5.398438 23.511719 5.398438 23.367188 5.351562 23.269531 C 5.011719 22.6875 4.769531 22.109375 4.625 21.433594 C 4.578125 21.285156 4.480469 21.191406 4.382812 21.191406 L 2.644531 20.65625 L 2.644531 19.0625 L 4.382812 18.53125 C 4.480469 18.480469 4.578125 18.386719 4.625 18.289062 C 4.769531 17.660156 5.0625 17.03125 5.351562 16.5 C 5.398438 16.402344 5.398438 16.257812 5.351562 16.160156 L 4.480469 14.515625 L 5.59375 13.402344 L 7.238281 14.273438 C 7.332031 14.324219 7.480469 14.324219 7.574219 14.273438 C 8.109375 13.9375 8.734375 13.695312 9.363281 13.550781 C 9.511719 13.5 9.605469 13.402344 9.605469 13.308594 L 10.136719 11.566406 L 11.734375 11.566406 L 12.265625 13.308594 C 12.316406 13.402344 12.410156 13.5 12.507812 13.550781 C 13.136719 13.695312 13.765625 13.9375 14.296875 14.273438 C 14.394531 14.324219 14.539062 14.324219 14.636719 14.273438 L 16.28125 13.402344 L 17.394531 14.515625 L 16.523438 16.160156 C 16.472656 16.257812 16.472656 16.402344 16.523438 16.5 C 16.859375 17.078125 17.101562 17.660156 17.246094 18.289062 C 17.296875 18.433594 17.394531 18.53125 17.488281 18.53125 L 19.230469 19.0625 L 19.230469 20.609375 Z M 19.375 20.609375 " fill-opacity="1" fill-rule="nonzero"/></g><path fill="#e86e23" d="M 11.007812 14.855469 C 8.253906 14.855469 6.027344 17.078125 6.027344 19.835938 C 6.027344 22.59375 8.253906 24.816406 11.007812 24.816406 C 13.765625 24.816406 15.992188 22.59375 15.992188 19.835938 C 15.992188 17.128906 13.765625 14.855469 11.007812 14.855469 Z M 11.007812 24.089844 C 8.640625 24.089844 6.753906 22.207031 6.753906 19.835938 C 6.753906 17.464844 8.640625 15.578125 11.007812 15.578125 C 13.378906 15.578125 15.265625 17.464844 15.265625 19.835938 C 15.265625 22.207031 13.332031 24.089844 11.007812 24.089844 Z M 11.007812 24.089844 " fill-opacity="1" fill-rule="nonzero"/><path fill="#e86e23" d="M 9.414062 5.90625 L 10.429688 6.488281 C 10.429688 6.828125 10.476562 7.214844 10.574219 7.550781 L 9.800781 8.421875 C 9.703125 8.519531 9.703125 8.710938 9.75 8.859375 L 10.476562 10.019531 C 10.574219 10.164062 10.71875 10.210938 10.863281 10.164062 L 11.976562 9.875 C 12.21875 10.117188 12.507812 10.308594 12.847656 10.503906 L 12.945312 11.664062 C 12.945312 11.808594 13.089844 11.953125 13.234375 12 L 14.585938 12.339844 L 14.683594 12.339844 C 14.828125 12.339844 14.925781 12.292969 14.976562 12.144531 L 15.554688 11.132812 C 15.894531 11.132812 16.28125 11.082031 16.617188 10.984375 L 17.488281 11.757812 C 17.585938 11.855469 17.78125 11.855469 17.925781 11.808594 L 19.085938 11.082031 C 19.230469 10.984375 19.277344 10.839844 19.230469 10.695312 L 18.941406 9.582031 C 19.183594 9.339844 19.375 9.050781 19.570312 8.710938 L 20.730469 8.617188 C 20.875 8.617188 21.019531 8.472656 21.066406 8.324219 L 21.40625 6.972656 C 21.453125 6.828125 21.359375 6.632812 21.261719 6.585938 L 20.246094 5.957031 C 20.246094 5.617188 20.199219 5.277344 20.101562 4.941406 L 20.875 4.070312 C 20.972656 3.972656 20.972656 3.78125 20.921875 3.636719 L 20.199219 2.472656 C 20.101562 2.328125 19.957031 2.28125 19.8125 2.328125 L 18.648438 2.621094 C 18.410156 2.378906 18.117188 2.183594 17.828125 1.992188 L 17.730469 0.832031 C 17.730469 0.683594 17.585938 0.539062 17.441406 0.492188 L 16.085938 0.152344 C 15.941406 0.105469 15.75 0.203125 15.699219 0.296875 L 15.070312 1.3125 C 14.734375 1.3125 14.394531 1.363281 14.054688 1.457031 L 13.183594 0.683594 C 13.089844 0.589844 12.894531 0.589844 12.75 0.636719 L 11.589844 1.410156 C 11.445312 1.507812 11.394531 1.652344 11.445312 1.796875 L 11.6875 2.957031 C 11.445312 3.199219 11.25 3.488281 11.058594 3.78125 L 9.898438 3.875 C 9.75 3.875 9.605469 4.023438 9.558594 4.167969 L 9.21875 5.519531 C 9.21875 5.667969 9.269531 5.8125 9.414062 5.90625 Z M 10.234375 4.601562 L 11.347656 4.554688 C 11.492188 4.554688 11.589844 4.457031 11.636719 4.359375 C 11.832031 3.972656 12.074219 3.636719 12.363281 3.34375 C 12.460938 3.25 12.507812 3.101562 12.460938 3.007812 L 12.21875 1.941406 L 12.945312 1.507812 L 13.765625 2.234375 C 13.863281 2.328125 14.007812 2.328125 14.105469 2.328125 C 14.492188 2.183594 14.925781 2.136719 15.3125 2.136719 C 15.457031 2.136719 15.554688 2.085938 15.601562 1.941406 L 16.183594 0.976562 L 17.003906 1.167969 L 17.101562 2.28125 C 17.101562 2.425781 17.199219 2.523438 17.296875 2.570312 C 17.683594 2.765625 17.972656 3.007812 18.3125 3.296875 C 18.359375 3.394531 18.503906 3.441406 18.648438 3.394531 L 19.714844 3.101562 L 20.148438 3.828125 L 19.425781 4.652344 C 19.328125 4.796875 19.328125 4.890625 19.328125 5.039062 C 19.472656 5.425781 19.519531 5.859375 19.519531 6.246094 C 19.519531 6.390625 19.570312 6.488281 19.714844 6.535156 L 20.679688 7.117188 L 20.488281 7.9375 L 19.375 7.988281 C 19.230469 7.988281 19.132812 8.085938 19.085938 8.179688 C 18.890625 8.566406 18.648438 8.90625 18.359375 9.195312 C 18.261719 9.292969 18.214844 9.4375 18.261719 9.535156 L 18.503906 10.597656 L 17.78125 11.035156 L 16.957031 10.308594 C 16.859375 10.210938 16.714844 10.210938 16.617188 10.210938 C 16.230469 10.355469 15.796875 10.40625 15.363281 10.40625 C 15.214844 10.40625 15.121094 10.453125 15.070312 10.597656 L 14.492188 11.613281 L 13.667969 11.421875 L 13.621094 10.308594 C 13.621094 10.164062 13.523438 10.066406 13.425781 10.019531 C 13.039062 9.824219 12.703125 9.582031 12.410156 9.292969 C 12.316406 9.195312 12.167969 9.148438 12.074219 9.195312 L 11.007812 9.4375 L 10.574219 8.710938 L 11.300781 7.890625 C 11.394531 7.792969 11.394531 7.648438 11.394531 7.550781 C 11.25 7.164062 11.203125 6.730469 11.203125 6.292969 C 11.203125 6.148438 11.152344 6.054688 11.007812 6.003906 L 10.089844 5.425781 Z M 10.234375 4.601562 " fill-opacity="1" fill-rule="nonzero"/><path fill="#e86e23" d="M 14.539062 9.582031 C 14.78125 9.632812 15.070312 9.679688 15.363281 9.679688 C 16.910156 9.679688 18.261719 8.617188 18.648438 7.117188 C 18.84375 6.246094 18.746094 5.328125 18.261719 4.554688 C 17.78125 3.78125 17.054688 3.25 16.183594 3.007812 C 15.941406 2.957031 15.652344 2.910156 15.363281 2.910156 C 13.8125 2.910156 12.460938 3.972656 12.074219 5.472656 C 11.878906 6.34375 11.976562 7.261719 12.460938 8.035156 C 12.945312 8.808594 13.667969 9.339844 14.539062 9.582031 Z M 12.75 5.667969 C 13.039062 4.457031 14.105469 3.636719 15.3125 3.636719 C 15.507812 3.636719 15.75 3.683594 15.941406 3.730469 C 16.617188 3.875 17.199219 4.3125 17.585938 4.941406 C 17.972656 5.570312 18.070312 6.246094 17.875 6.972656 C 17.585938 8.179688 16.523438 9.003906 15.3125 9.003906 C 15.121094 9.003906 14.878906 8.953125 14.683594 8.90625 C 14.007812 8.710938 13.425781 8.277344 13.039062 7.648438 C 12.703125 7.070312 12.558594 6.34375 12.75 5.667969 Z M 12.75 5.667969 " fill-opacity="1" fill-rule="nonzero"/><g clip-path="url(#c5cfdb7dd6)"><path fill="#e86e23" d="M 27.839844 13.210938 L 27.015625 12.824219 C 26.96875 12.582031 26.917969 12.339844 26.824219 12.097656 L 27.355469 11.371094 C 27.453125 11.226562 27.453125 11.082031 27.355469 10.9375 L 26.679688 10.066406 C 26.582031 9.921875 26.4375 9.875 26.242188 9.921875 L 25.421875 10.210938 C 25.226562 10.066406 24.984375 9.921875 24.742188 9.824219 L 24.648438 8.90625 C 24.597656 8.761719 24.5 8.617188 24.355469 8.617188 L 23.246094 8.472656 C 23.097656 8.472656 22.953125 8.519531 22.859375 8.664062 L 22.46875 9.488281 C 22.230469 9.535156 21.988281 9.582031 21.746094 9.679688 L 21.019531 9.148438 C 20.875 9.050781 20.730469 9.050781 20.585938 9.148438 L 19.714844 9.824219 C 19.570312 9.921875 19.519531 10.066406 19.570312 10.261719 L 19.859375 11.082031 C 19.714844 11.277344 19.570312 11.519531 19.472656 11.757812 L 18.601562 11.90625 C 18.457031 11.953125 18.3125 12.050781 18.3125 12.195312 L 18.167969 13.308594 C 18.167969 13.453125 18.214844 13.597656 18.359375 13.695312 L 19.183594 14.082031 C 19.230469 14.324219 19.277344 14.613281 19.375 14.855469 L 18.84375 15.53125 C 18.746094 15.675781 18.746094 15.820312 18.84375 15.96875 L 19.519531 16.835938 C 19.617188 16.984375 19.761719 17.03125 19.90625 16.984375 L 20.730469 16.691406 C 20.921875 16.835938 21.164062 16.984375 21.40625 17.078125 L 21.550781 17.949219 C 21.601562 18.09375 21.695312 18.238281 21.84375 18.238281 L 22.953125 18.386719 L 23.003906 18.386719 C 23.148438 18.386719 23.292969 18.289062 23.339844 18.191406 L 23.726562 17.371094 C 23.96875 17.320312 24.261719 17.273438 24.5 17.175781 L 25.226562 17.707031 C 25.371094 17.804688 25.515625 17.804688 25.664062 17.707031 L 26.53125 17.03125 C 26.679688 16.933594 26.726562 16.789062 26.679688 16.59375 L 26.386719 15.773438 C 26.53125 15.578125 26.679688 15.339844 26.773438 15.097656 L 27.644531 14.953125 C 27.789062 14.902344 27.933594 14.804688 27.933594 14.660156 L 28.082031 13.550781 C 28.082031 13.402344 27.984375 13.257812 27.839844 13.210938 Z M 27.210938 14.273438 L 26.386719 14.417969 C 26.242188 14.417969 26.144531 14.515625 26.097656 14.660156 C 26 14.953125 25.808594 15.242188 25.613281 15.484375 C 25.515625 15.578125 25.515625 15.726562 25.566406 15.820312 L 25.855469 16.59375 L 25.421875 16.933594 L 24.742188 16.449219 C 24.648438 16.355469 24.5 16.355469 24.40625 16.402344 C 24.113281 16.546875 23.777344 16.59375 23.4375 16.644531 C 23.292969 16.644531 23.195312 16.742188 23.148438 16.835938 L 22.808594 17.5625 L 22.230469 17.5625 L 22.082031 16.742188 C 22.082031 16.59375 21.988281 16.5 21.84375 16.449219 C 21.550781 16.304688 21.261719 16.160156 21.019531 15.96875 C 20.921875 15.871094 20.777344 15.871094 20.679688 15.917969 L 19.90625 16.207031 L 19.570312 15.773438 L 20.050781 15.097656 C 20.148438 15 20.148438 14.855469 20.101562 14.757812 C 19.957031 14.46875 19.90625 14.128906 19.859375 13.789062 C 19.859375 13.644531 19.761719 13.550781 19.664062 13.5 L 18.890625 13.113281 L 18.988281 12.535156 L 19.8125 12.386719 C 19.957031 12.386719 20.050781 12.292969 20.101562 12.144531 C 20.246094 11.855469 20.390625 11.566406 20.585938 11.324219 C 20.679688 11.226562 20.679688 11.082031 20.632812 10.984375 L 20.34375 10.210938 L 20.777344 9.875 L 21.453125 10.355469 C 21.550781 10.453125 21.695312 10.453125 21.792969 10.40625 C 22.082031 10.261719 22.421875 10.210938 22.710938 10.164062 C 22.859375 10.164062 22.953125 10.066406 23.003906 9.96875 L 23.339844 9.246094 L 23.921875 9.339844 L 24.066406 10.164062 C 24.066406 10.308594 24.164062 10.40625 24.308594 10.453125 C 24.597656 10.550781 24.886719 10.742188 25.128906 10.9375 C 25.226562 11.035156 25.371094 11.035156 25.46875 10.984375 L 26.242188 10.695312 L 26.582031 11.132812 L 26.097656 11.808594 C 26 11.90625 26 12.050781 26.050781 12.144531 C 26.195312 12.4375 26.242188 12.773438 26.292969 13.066406 C 26.292969 13.210938 26.386719 13.308594 26.484375 13.355469 L 27.257812 13.695312 Z M 27.210938 14.273438 " fill-opacity="1" fill-rule="nonzero"/></g><path fill="#e86e23" d="M 23.097656 10.648438 C 22.46875 10.648438 21.9375 10.839844 21.453125 11.226562 C 20.875 11.664062 20.488281 12.339844 20.390625 13.066406 C 20.292969 13.789062 20.488281 14.515625 20.921875 15.097656 C 21.453125 15.820312 22.277344 16.207031 23.148438 16.207031 C 23.777344 16.207031 24.308594 16.015625 24.792969 15.628906 C 26 14.710938 26.242188 12.96875 25.324219 11.757812 C 24.792969 11.082031 23.96875 10.648438 23.097656 10.648438 Z M 24.308594 15.046875 C 23.96875 15.339844 23.535156 15.484375 23.097656 15.484375 C 22.46875 15.484375 21.84375 15.191406 21.453125 14.660156 C 21.117188 14.226562 20.972656 13.695312 21.066406 13.160156 C 21.164062 12.628906 21.40625 12.144531 21.84375 11.808594 C 22.179688 11.519531 22.617188 11.371094 23.050781 11.371094 C 23.679688 11.371094 24.308594 11.664062 24.695312 12.195312 C 25.421875 13.113281 25.226562 14.371094 24.308594 15.046875 Z M 24.308594 15.046875 " fill-opacity="1" fill-rule="nonzero"/></svg>